<?xml version="1.0" encoding="UTF-8"?>
<svg id="Layer_1" data-name="Layer 1" xmlns="http://www.w3.org/2000/svg" version="1.1" viewBox="0 0 265 70">
  <defs>
    <style>
      .cls-1 {
        fill: #444545;
      }

      .cls-1, .cls-2, .cls-3, .cls-4, .cls-5 {
        stroke-width: 0px;
      }

      .cls-2, .cls-6 {
        fill: #1a1a1a;
      }

      .cls-3, .cls-7 {
        fill: #c36141;
      }

      .cls-8 {
        font-size: 32.82px;
      }

      .cls-9 {
        fill: #87bbdb;
      }

      .cls-9, .cls-7, .cls-10 {
        font-family: IBMPlexSerif-Bold, 'IBM Plex Serif';
        font-weight: 700;
      }

      .cls-4 {
        fill: #2a793c;
      }

      .cls-5 {
        fill: #80bf4f;
      }

      .cls-6 {
        font-family: IBMPlexSerif-Light, 'IBM Plex Serif';
        font-weight: 300;
      }

      .cls-10 {
        fill: #fccd0b;
      }
    </style>
  </defs>
  <g id="SvgjsG2816">
    <g>
      <path class="cls-2" d="M54.69,52.86c-.59,0-.29,0-10.05-2.93v4.03c0,.37.22.66.59.73l9.32,2.42h.44l9.32-2.42c.37-.07.59-.37.59-.73v-4.03c-10.27,3.01-9.68,2.93-10.2,2.93Z"/>
      <path class="cls-1" d="M68.77,45.6l-13.87-4.25c-.15-.07-.29-.07-.44,0l-13.94,4.25c-.29.07-.59.44-.59.73s.22.66.59.73c14.67,4.48,13.94,4.25,14.16,4.25.15,0-.59.22,11.96-3.59v6.97c0,.44.37.81.81.81s.81-.37.81-.81v-7.41l.66-.22c.29-.07.59-.44.59-.73s-.37-.66-.73-.73Z"/>
      <path class="cls-4" d="M25.78,50.96V11.56c-1.91.29-3.37,1.91-3.37,3.81v36.61c.81-.66,1.83-1.1,2.93-1.1h.44v.07Z"/>
      <path class="cls-5" d="M43.02,49.42c-.88-.29-1.91-.59-2.93-.88-.95-.29-1.69-1.17-1.69-2.2s.66-1.91,1.69-2.27l13.94-4.25c.29-.07.44-.07.66-.07s.44,0,.66.07l6.24,1.91V13.47c0-1.03-.81-1.91-1.91-1.91H27.4v39.39h15.7v-1.54h-.07ZM31.36,16.92h8.66c.44,0,.81.37.81.81s-.37.81-.81.81h-8.66c-.44,0-.81-.37-.81-.81,0-.44.37-.81.81-.81ZM31.36,23.52h17.31c.44,0,.81.37.81.81s-.37.81-.81.81h-17.31c-.44,0-.81-.37-.81-.81,0-.51.37-.81.81-.81ZM30.55,30.86c0-.44.37-.81.81-.81h17.31c.44,0,.81.37.81.81s-.37.81-.81.81h-17.31c-.44-.07-.81-.44-.81-.81ZM35.32,37.38c0-.44.37-.81.81-.81h7.7c.44,0,.81.37.81.81s-.37.81-.81.81h-7.7c-.44,0-.81-.37-.81-.81Z"/>
      <path class="cls-3" d="M43.02,53.96v-1.47h-17.61c-1.39,0-2.71.95-3.01,2.35-.37,1.91,1.03,3.59,2.86,3.59h27.73l-8.22-2.2c-1.03-.22-1.76-1.17-1.76-2.27Z"/>
    </g>
  </g>
  <text class="cls-8" transform="translate(76.93 45.63)"><tspan class="cls-7" x="0" y="0">E</tspan><tspan class="cls-10" x="21.59" y="0">D</tspan><tspan class="cls-9" x="46.37" y="0">U</tspan><tspan class="cls-6" x="71.61" y="0">Mate</tspan></text>
</svg>